<svg width="3625" height="1956" viewBox="0 0 3625 1956" fill="none" xmlns="http://www.w3.org/2000/svg">
<g clip-path="url(#clip0_564_13590)">
<rect width="3624.64" height="1955.92" rx="222.826" fill="black"/>
<path d="M1382.8 1993.56H1013.18L991.304 1748.6H529.813L409.52 1993.56H22.3928L871.01 436.308H1153.15L1382.8 1993.56ZM962.87 1453.34L914.753 994.033L678.54 1453.34H962.87Z" fill="white"/>
<rect x="1615.53" y="1288.69" width="514.976" height="195.592" rx="97.796" stroke="white" stroke-width="2.47585"/>
<path d="M1814.18 1364.94H1773.01V1357.08H1814.84C1812.96 1351.21 1810.63 1345.57 1807.98 1340.15L1815.72 1338.04C1818.49 1344.35 1820.59 1350.11 1822.14 1355.42L1817.83 1357.08H1863.42V1364.94H1822.25V1391.05H1858.11V1398.47H1822.25V1428.13H1867.3V1435.99H1769.13V1428.13H1814.18V1398.47H1778.32V1391.05H1814.18V1364.94ZM1878.25 1356.75H1892.75C1891.2 1350.99 1889.54 1345.68 1887.66 1340.92L1895.63 1339.59C1897.18 1344.57 1898.73 1350.33 1900.28 1356.75H1913.23V1364.27H1878.25V1356.75ZM1887.33 1370.8C1889.65 1383.42 1891.76 1398.03 1893.64 1414.41L1887.11 1416.07C1885.45 1401.13 1883.34 1386.74 1880.8 1372.9L1887.33 1370.8ZM1913.11 1415.4V1423.04C1902.93 1427.02 1891.87 1430.23 1880.02 1432.89L1878.03 1425.03C1884.56 1423.92 1890.98 1422.49 1897.18 1420.71C1899.83 1404.56 1901.72 1387.51 1902.93 1369.36L1910.13 1370.36C1908.8 1387.73 1906.7 1403.78 1904.04 1418.61C1907.14 1417.5 1910.24 1416.51 1913.11 1415.4ZM1965.68 1359.73V1342.8H1973.21V1366.71H1920.53V1342.8H1928.17V1359.73H1942.88V1338.49H1950.63V1359.73H1965.68ZM1915.77 1376H1978.74V1383.31H1949.64C1948.86 1386.96 1947.75 1390.5 1946.43 1393.93H1975.53V1431.01C1975.53 1436.54 1973.21 1439.31 1968.56 1439.31H1963.47L1961.59 1432.11L1966.13 1432.45C1967.56 1432.45 1968.34 1431.45 1968.34 1429.46V1401.02H1958.38V1437.54H1951.63V1401.02H1942.66V1437.65H1935.91V1401.02H1926.17V1439.31H1918.98V1393.93H1938.68C1940.01 1390.5 1941.11 1386.96 1941.78 1383.31H1915.77V1376Z" fill="white"/>
<rect x="2180.03" y="1288.69" width="514.976" height="195.592" rx="97.796" stroke="white" stroke-width="2.47585"/>
<path d="M2379.79 1338.6H2385.54C2399.6 1354.09 2415.76 1366.26 2434.02 1375.12L2429.7 1382.75C2411.33 1373.35 2395.73 1360.95 2382.67 1345.68C2370.71 1360.07 2354.89 1372.46 2335.19 1382.87L2330.98 1375.23C2350.46 1365.49 2366.73 1353.21 2379.79 1338.6ZM2381.78 1367.81H2389.86V1392.71H2420.07V1400.35H2389.86V1427.58H2428.04V1435.32H2335.96V1427.58H2352.68V1383.75H2360.53V1427.58H2381.78V1367.81ZM2477.29 1339.37H2485.37V1427.35H2501.08V1339.37H2509.16V1427.35H2542.36V1435.1H2444.31V1427.35H2477.29V1339.37ZM2532.29 1359.51L2539.38 1361.51C2534.95 1380.76 2529.42 1397.58 2522.67 1412.08L2515.47 1409.54C2521.89 1396.48 2527.53 1379.77 2532.29 1359.51ZM2453.83 1359.29C2459.58 1374.23 2464.78 1391.39 2469.32 1410.75L2462.02 1412.64C2458.03 1394.93 2453.05 1377.88 2447.08 1361.51L2453.83 1359.29Z" fill="white"/>
<path d="M1777.74 794.728V754.59H2090.35V794.728H1955.98L1946.8 829.764H2063.47V1056.65H2017.89V1036.58H1850.54V1056.65H1804.96V829.764H1896.46L1904.62 794.728H1777.74ZM1850.54 952.22V996.441H2017.89V952.22H1850.54ZM1850.54 869.222V913.102H2017.89V869.222H1850.54ZM2238.31 906.299V857.657H2196.81V888.611C2196.81 929.43 2194.43 962.312 2189.67 987.256C2185.14 1011.07 2176.97 1034.99 2165.18 1059.03C2154.98 1050.41 2143.07 1040.55 2129.46 1029.44C2139.67 1008.57 2146.47 988.957 2149.87 970.589C2153.73 950.406 2155.66 921.946 2155.66 885.21V763.094H2282.87L2275.05 737.582L2327.78 734.18L2335.6 763.094H2449.55V799.83H2398.19V822.621H2447.17V857.657H2398.19V906.299H2238.31ZM2434.58 1054.95C2386.96 1048.82 2348.41 1039.41 2318.93 1026.71C2288.54 1039.64 2250.11 1050.3 2203.62 1058.69C2195.23 1040.32 2189.1 1027.62 2185.25 1020.59C2218.81 1016.51 2248.86 1010.5 2275.39 1002.56C2258.16 990.318 2242.17 974.784 2227.43 955.962H2206.34V922.627H2419.62V957.663C2401.7 976.031 2383.45 991.111 2364.85 1002.9C2390.02 1008.8 2418.94 1012.77 2451.59 1014.81C2450.91 1016.17 2445.24 1029.55 2434.58 1054.95ZM2279.47 799.83V822.621H2357.37V799.83H2279.47ZM2366.89 955.962H2274.03C2287.41 968.888 2302.26 979.093 2318.59 986.576C2338.55 977.505 2354.65 967.301 2366.89 955.962ZM2279.47 857.657V877.726H2357.37V857.657H2279.47ZM2196.81 799.83V822.621H2238.31V799.83H2196.81ZM2502.96 1054.27V752.549H2793.11V998.482C2793.11 1016.62 2789.71 1030 2782.9 1038.62C2775.87 1047.46 2764.2 1052.23 2747.87 1052.91C2737.21 1053.36 2718.61 1053.59 2692.08 1053.59C2688 1030.46 2685.39 1016.62 2684.26 1012.09C2698.09 1012.99 2712.49 1013.45 2727.46 1013.45C2735.62 1013.45 2741.4 1011.75 2744.81 1008.35C2747.98 1005.17 2749.57 999.502 2749.57 991.338V825.342C2735.96 858.451 2724.17 886.003 2714.19 908C2727.8 935.893 2738.91 959.477 2747.53 978.752L2714.53 998.482C2703.42 973.31 2696.5 957.89 2693.78 952.22C2685.85 968.775 2677.12 986.009 2667.59 1003.92L2635.28 985.556L2622.69 991.678C2616.57 977.392 2610.1 962.765 2603.3 947.798C2592.42 969.115 2582.1 988.39 2572.35 1005.62L2546.5 988.277V1054.27H2502.96ZM2717.93 807.654L2749.57 823.301V792.347H2546.5V824.322L2576.77 808.675L2603.98 864.46C2611.69 848.813 2620.2 830.444 2629.49 809.355L2650.92 819.559L2665.21 811.736L2693.44 865.481C2701.15 847.792 2709.32 828.517 2717.93 807.654ZM2583.91 905.279C2568.04 871.717 2555.57 846.092 2546.5 828.404V973.99C2554.66 959.931 2567.13 937.027 2583.91 905.279ZM2673.37 908.34C2661.81 884.529 2653.19 867.181 2647.52 856.296L2624.05 905.959L2648.2 957.663C2654.1 947.005 2662.49 930.564 2673.37 908.34ZM3007.07 923.647C2990.97 910.948 2976.11 899.61 2962.51 889.632L2982.92 869.562H2936.31C2932.69 893.373 2921.12 913.783 2901.62 930.79H3134.62V1009.71H3164.56V1046.1H2846.17V1009.71H2876.79V938.954L2851.96 915.483C2873.27 902.331 2886.42 887.024 2891.41 869.562H2847.19V835.887H2895.84C2896.06 832.939 2896.18 829.991 2896.18 827.043V760.032H2967.27L2974.07 736.221L3023.39 739.283C3022.94 740.87 3020.56 747.787 3016.25 760.032H3126.8V835.887H3165.92V869.562H3126.8V876.025C3126.8 890.992 3123.85 901.991 3117.96 909.021C3111.83 916.277 3101.63 920.359 3087.34 921.266C3071.47 921.72 3057.52 921.946 3045.5 921.946C3043.92 911.969 3041.42 901.084 3038.02 889.291C3047.54 889.972 3057.41 890.312 3067.61 890.312C3073.28 890.312 3077.37 889.065 3079.86 886.57C3082.35 884.076 3083.6 880.107 3083.6 874.665V869.562H2993.46C3005.93 877.726 3018.97 886.797 3032.58 896.775L3007.07 923.647ZM3083.6 793.367H3005.03C3017.95 801.985 3029.97 810.375 3041.08 818.539L3023.73 835.887H3083.6V793.367ZM2939.38 828.063V835.887H3006.39L2971.69 810.375L2989.38 793.367H2939.38V828.063ZM2990.4 966.167V1009.71H3020.67V966.167H2990.4ZM2921.01 966.167V1009.71H2951.28V966.167H2921.01ZM3090.06 966.167H3059.79V1009.71H3090.06V966.167Z" fill="white"/>
<a href="https://www.figma.com/design/qW3Wa2ACorAtwwHGWo8Kn0?node-id=676-3371">
<rect fill="black" fill-opacity="0" y="0.164734" width="1411.65" height="415.671"/>
</a>
<rect x="1615.49" y="731.794" width="95.9414" height="344.517" rx="47.9707" fill="white"/>
</g>
<defs>
<clipPath id="clip0_564_13590">
<rect width="3624.64" height="1955.92" rx="222.83" fill="white"/>
</clipPath>
</defs>
</svg>
