<svg width="3625" height="1956" viewBox="0 0 3625 1956" fill="none" xmlns="http://www.w3.org/2000/svg">
<g clip-path="url(#clip0_563_13589)">
<rect width="3624.64" height="1955.92" rx="222.826" fill="black"/>
<path d="M1238.03 801.562C1238.03 945.914 1183.35 1101.2 1004 1206.19C1078.37 1265.24 1135.23 1328.67 1135.23 1468.64C1135.23 1790.16 896.834 1993.56 595.007 1993.56H-76.4508L236.313 436.307H824.658C1084.93 436.307 1238.03 582.846 1238.03 801.562ZM868.401 873.738C868.401 821.246 846.53 757.819 756.856 757.819H535.953L476.9 1044.34H691.241C833.407 1044.34 868.401 930.604 868.401 873.738ZM767.792 1486.14C767.792 1427.09 739.359 1365.85 649.685 1365.85H413.472L352.232 1672.05H584.071C704.364 1672.05 767.792 1586.75 767.792 1486.14Z" fill="white"/>
<path d="M1771.88 916.854V867.871H2095.37V916.854H1771.88ZM2153.2 988.627C2147.3 979.102 2139.14 967.197 2128.71 952.91C2158.64 937.263 2183.36 919.348 2202.86 899.166L2177.69 900.526C2168.39 900.98 2159.09 902.341 2149.8 904.608L2136.19 870.252C2144.81 865.717 2152.63 859.368 2159.66 851.204C2169.41 838.731 2178.14 825.805 2185.85 812.426H2136.53V773.648H2211.7L2200.82 742.014L2248.44 737.252C2253.43 754.033 2256.83 766.165 2258.65 773.648H2315.45V812.426H2231.77C2216.35 834.65 2203.43 852.111 2193 864.81C2200.48 864.81 2213.52 864.356 2232.11 863.449C2239.14 853.018 2247.08 840.092 2255.92 824.672L2289.94 842.7C2269.3 876.942 2248.89 904.948 2228.71 926.718C2208.53 948.488 2183.36 969.124 2153.2 988.627ZM2344.36 1052.92C2342.32 1039.08 2339.38 1024.46 2335.52 1009.04C2351.17 1009.72 2364.43 1010.06 2375.32 1010.06C2382.58 1010.06 2387.68 1008.58 2390.63 1005.63C2393.8 1002.46 2395.39 997.357 2395.39 990.328V739.633H2437.23V1000.87C2437.23 1017.2 2433.6 1029.33 2426.34 1037.27C2418.86 1045.43 2406.95 1050.08 2390.63 1051.22C2375.89 1052.35 2360.47 1052.92 2344.36 1052.92ZM2158.64 1059.38C2151.84 1049.4 2143.45 1037.72 2133.47 1024.34C2170.66 1005.29 2200.25 985.679 2222.25 965.496C2242.88 946.447 2263.52 920.255 2284.16 886.92L2317.15 905.969C2300.6 932.955 2284.27 955.745 2268.17 974.34C2289.26 990.214 2308.42 1005.18 2325.66 1019.24L2297.42 1051.56C2281.55 1036.82 2262.73 1020.26 2240.96 1001.89C2218.73 1022.3 2191.29 1041.46 2158.64 1059.38ZM2329.4 976.041V776.71H2370.22V976.041H2329.4ZM2491.99 836.577V797.119H2529.75V737.592H2571.59V797.119H2606.28V836.577H2571.59V880.457L2579.75 871.273C2592.45 882.385 2605.15 894.063 2617.85 906.309V754.599H2795.41V1058.02H2753.23V1037.61H2660.03V1058.02H2617.85V912.772L2596.42 940.325C2586.67 929.666 2578.39 920.709 2571.59 913.452V1057.34H2529.75V920.255C2520.45 942.479 2509.11 963.909 2495.73 984.545C2492.79 961.868 2489.61 941.799 2486.21 924.337C2503.9 898.939 2517.84 869.686 2528.05 836.577H2491.99ZM2660.03 954.951V998.151H2753.23V954.951H2660.03ZM2660.03 794.398V836.917H2753.23V794.398H2660.03ZM2660.03 874.675V917.194H2753.23V874.675H2660.03ZM3025.02 1058.7C3013.68 1048.27 3002.68 1038.74 2992.02 1030.13C3001.55 1012.21 3008.12 995.203 3011.75 979.102C3015.38 963.002 3017.42 940.438 3017.87 911.411H2989.64V999.172C2989.64 1014.82 2986.81 1026.27 2981.14 1033.53C2975.24 1041.01 2965.6 1045.21 2952.22 1046.11C2942.7 1046.79 2930.45 1047.13 2915.49 1047.13C2913.22 1033.98 2910.61 1020.49 2907.66 1006.66C2913.56 1007.11 2921.5 1007.34 2931.47 1007.34C2938.5 1007.34 2943.15 1006.2 2945.42 1003.93C2947.69 1001.67 2948.82 997.017 2948.82 989.987V911.411H2913.45C2912.54 943.386 2909.48 970.145 2904.26 991.688C2898.82 1013.91 2889.63 1036.59 2876.71 1059.72C2870.13 1052.92 2859.25 1042.14 2844.05 1027.4C2854.49 1008.13 2861.63 990.781 2865.48 975.361C2869.34 959.713 2871.61 938.397 2872.29 911.411H2845.75V868.552H2872.63V750.518H2989.64V868.552H3018.21V750.177H3138.29V868.552H3164.82V911.411H3138.29V1007.68C3138.29 1021.51 3135.45 1031.71 3129.78 1038.29C3123.89 1044.87 3114.25 1048.72 3100.87 1049.85C3089.53 1050.76 3076.61 1051.22 3062.09 1051.22C3059.37 1033.98 3057.1 1020.26 3055.29 1010.06C3067.99 1010.51 3076.61 1010.74 3081.14 1010.74C3087.49 1010.74 3091.69 1009.6 3093.73 1007.34C3095.77 1005.29 3096.79 1000.99 3096.79 994.409V911.411H3058.69C3058.01 945.88 3055.29 973.433 3050.53 994.069C3045.77 1014.48 3037.26 1036.02 3025.02 1058.7ZM3059.03 788.955V868.552H3096.79V788.955H3059.03ZM2913.79 789.295V868.552H2948.82V789.295H2913.79Z" fill="white"/>
<rect x="1615.41" y="731.787" width="95.9414" height="344.517" rx="47.9707" fill="white"/>
</g>
<defs>
<clipPath id="clip0_563_13589">
<rect width="3624.64" height="1955.92" rx="222.83" fill="white"/>
</clipPath>
</defs>
</svg>
