<svg width="3625" height="1956" viewBox="0 0 3625 1956" fill="none" xmlns="http://www.w3.org/2000/svg">
<g clip-path="url(#clip0_563_13588)">
<rect width="3624.64" height="1955.92" rx="222.826" fill="black"/>
<path d="M1079.24 919.668H716.171C713.984 829.995 683.364 742.509 565.257 742.509C486.52 742.509 447.151 770.942 407.782 810.31C357.477 860.615 320.296 969.973 269.991 1214.93C252.494 1304.61 228.435 1440.21 228.435 1521.14C228.435 1628.31 289.676 1687.36 385.91 1687.36C501.83 1687.36 569.632 1599.87 604.626 1510.2H978.63C864.898 1851.4 635.246 2006.69 357.477 2006.69C29.4039 2006.69 -139.007 1785.78 -139.007 1551.76C-139.007 1481.77 -123.697 1365.85 -93.077 1214.93C-38.398 943.727 -1.21635 749.07 143.136 604.718C280.927 466.927 444.964 423.183 589.316 423.183C923.951 423.183 1079.24 646.274 1079.24 919.668Z" fill="white"/>
<path d="M1801.52 889.982V766.845H1846.42V847.462H1910.03V737.932H1957.31V847.462H2020.92V766.845H2065.82V889.982H1957.31V998.831H2033.17V918.895H2078.07V1055.3H2033.17V1041.01H1788.94V918.895H1834.18V998.831H1910.03V889.982H1801.52ZM2230.46 855.966C2222.75 846.442 2213.34 836.01 2202.23 824.672C2231.03 797.913 2252.12 768.092 2265.5 735.211L2311.76 738.612C2306.54 749.497 2302.57 757.321 2299.85 762.083H2444.76V797.459H2279.1C2272.75 806.53 2267.88 813.22 2264.47 817.528H2427.75C2427.75 820.023 2427.3 845.988 2426.39 895.424H2452.24V930.8H2425.37L2424.35 974H2446.8V1008.7H2422.99C2421.4 1025.02 2416.75 1036.59 2409.04 1043.39C2400.88 1050.65 2387.84 1054.5 2369.92 1054.96L2313.46 1055.98C2310.51 1045.55 2306.99 1034.66 2302.91 1023.32C2319.92 1024 2337.49 1024.34 2355.64 1024.34C2363.8 1024.34 2369.81 1023.21 2373.66 1020.94C2377.52 1018.67 2380.13 1014.59 2381.49 1008.7H2221.27L2229.1 930.8H2204.95V895.424H2232.84L2237.94 848.142L2230.46 855.966ZM2174.33 1056.32L2131.81 1044.75C2143.38 1003.48 2153.47 963.569 2162.09 925.018C2185.22 932.047 2199.16 936.243 2203.93 937.603C2190.77 987.039 2180.91 1026.61 2174.33 1056.32ZM2186.92 813.787C2168.32 797.006 2151.32 782.379 2135.9 769.907L2163.11 739.973C2177.62 750.631 2195.2 764.124 2215.83 780.451L2186.92 813.787ZM2179.44 902.567C2162.65 887.147 2145.87 872.52 2129.09 858.687L2156.65 828.753C2170.25 838.958 2187.6 852.564 2208.69 869.572L2179.44 902.567ZM2327.74 974C2320.49 968.104 2310.28 960.394 2297.13 950.869L2316.52 930.8H2269.92L2265.16 974H2327.74ZM2383.87 974L2384.89 930.8H2322.64C2332.39 936.696 2344.52 944.747 2359.04 954.951L2341.69 974H2383.87ZM2386.25 852.564H2328.76C2339.88 860.275 2350.99 867.985 2362.1 875.695L2343.73 895.424H2385.57C2386.02 867.758 2386.25 853.471 2386.25 852.564ZM2278.42 852.564L2273.66 895.424H2331.49C2329.22 893.61 2318.67 885.673 2299.85 871.613L2319.24 852.564H2278.42ZM2493.74 824.672V782.492H2629.12L2615.52 741.674L2668.92 737.252C2675.95 758.795 2680.6 773.875 2682.87 782.492H2802.94V824.672H2617.9C2616.99 844.174 2616.2 858.914 2615.52 868.892H2767.23C2765.18 922.637 2762.92 962.548 2760.42 988.627C2758.61 1010.4 2752.94 1025.7 2743.41 1034.55C2733.89 1043.39 2717.9 1048.15 2695.45 1048.83C2675.72 1049.74 2655.09 1050.19 2633.54 1050.19C2631.5 1037.95 2627.99 1022.98 2623 1005.29C2642.73 1005.97 2660.53 1006.31 2676.4 1006.31C2689.78 1006.31 2699.19 1003.93 2704.64 999.172C2710.08 994.409 2713.37 985.339 2714.5 971.959C2716.32 952.91 2717.56 932.501 2718.24 910.731H2612.11C2607.81 943.159 2599.07 970.258 2585.92 992.028C2572.77 1013.8 2551.57 1036.25 2522.31 1059.38L2486.6 1024.34C2515.85 1002.12 2536.03 981.03 2547.14 961.074C2558.03 941.345 2564.72 914.7 2567.21 881.137C2568.12 870.252 2569.03 851.431 2569.93 824.672H2493.74ZM2861.45 1053.6V779.771H2955.33C2959.19 767.752 2963.16 753.352 2967.24 736.571L3018.26 739.973C3013.5 753.352 3008.74 766.618 3003.97 779.771H3150.24V998.831C3150.24 1017.43 3146.5 1030.58 3139.02 1038.29C3131.31 1046 3117.7 1050.31 3098.2 1051.22C3086.63 1051.67 3068.26 1052.12 3043.09 1052.58C3039.46 1032.85 3036.52 1018.33 3034.25 1009.04C3053.75 1009.49 3069.62 1009.72 3081.87 1009.72C3090.71 1009.72 3096.95 1008.13 3100.58 1004.95C3104.21 1001.78 3106.02 996.564 3106.02 989.307V820.59H2905.67V1053.6H2861.45ZM2934.92 984.545V853.585H3076.09V984.545H2934.92ZM2976.76 891.682V946.447H3033.91V891.682H2976.76Z" fill="white"/>
<rect x="1615.45" y="731.787" width="95.9414" height="344.517" rx="47.9707" fill="white"/>
</g>
<defs>
<clipPath id="clip0_563_13588">
<rect width="3624.64" height="1955.92" rx="222.83" fill="white"/>
</clipPath>
</defs>
</svg>
